<svg version="1.1" id="Layer_1" xmlns="http://www.w3.org/2000/svg" xmlns:xlink="http://www.w3.org/1999/xlink" x="0px" y="0px"
	 width="100%" viewBox="0 0 250 250" enable-background="new 0 0 250 250" xml:space="preserve">
<path fill="transparent" opacity="1.000000" stroke="none" 
	d="
M152.000000,251.000000 
	C101.333336,251.000000 51.166672,251.000000 1.000007,251.000000 
	C1.000005,167.666672 1.000005,84.333351 1.000002,1.000018 
	C84.333321,1.000012 167.666641,1.000012 250.999969,1.000006 
	C250.999969,84.333313 250.999969,167.666626 250.999985,250.999969 
	C218.166672,251.000000 185.333328,251.000000 152.000000,251.000000 
M209.001144,138.583801 
	C209.290787,137.499817 209.825867,136.417313 209.832397,135.331619 
	C209.903641,123.465607 209.937073,111.598915 209.889862,99.732765 
	C209.848877,89.434120 209.414276,79.129433 209.656006,68.839218 
	C209.949539,56.343277 205.823456,49.025394 194.875458,44.379097 
	C177.217392,36.885071 158.553619,33.958046 139.590454,33.096855 
	C122.747337,32.331936 105.880661,32.802681 89.241280,36.030319 
	C76.472618,38.507130 63.757286,41.326439 52.904980,49.076176 
	C49.322453,51.634487 45.932102,54.403149 45.944027,59.711109 
	C46.043228,103.873734 45.950119,148.036896 46.133278,192.198990 
	C46.143536,194.672485 47.516994,197.672897 49.244900,199.485199 
	C52.020786,202.396683 55.352955,205.043503 58.922779,206.886520 
	C74.726501,215.045624 92.097572,217.574600 109.440994,218.744324 
	C123.283318,219.677917 137.291718,218.601303 151.202911,217.930161 
	C164.277847,217.299393 177.210434,215.048233 189.280731,209.909637 
	C206.482910,202.586273 210.023682,199.474106 209.200867,183.303833 
	C208.728058,174.011856 209.133774,164.675903 209.116455,155.359802 
	C209.106567,150.036774 209.041367,144.713837 209.001144,138.583801 
z"/>
<path fill="#F38020" opacity="1.000000" stroke="none" 
	d="
M209.001099,138.987335 
	C209.041367,144.713837 209.106567,150.036774 209.116455,155.359802 
	C209.133774,164.675903 208.728058,174.011856 209.200867,183.303833 
	C210.023682,199.474106 206.482910,202.586273 189.280731,209.909637 
	C177.210434,215.048233 164.277847,217.299393 151.202911,217.930161 
	C137.291718,218.601303 123.283318,219.677917 109.440994,218.744324 
	C92.097572,217.574600 74.726501,215.045624 58.922779,206.886520 
	C55.352955,205.043503 52.020786,202.396683 49.244900,199.485199 
	C47.516994,197.672897 46.143536,194.672485 46.133278,192.198990 
	C45.950119,148.036896 46.043228,103.873734 45.944027,59.711109 
	C45.932102,54.403149 49.322453,51.634487 52.904980,49.076176 
	C63.757286,41.326439 76.472618,38.507130 89.241280,36.030319 
	C105.880661,32.802681 122.747337,32.331936 139.590454,33.096855 
	C158.553619,33.958046 177.217392,36.885071 194.875458,44.379097 
	C205.823456,49.025394 209.949539,56.343277 209.656006,68.839218 
	C209.414276,79.129433 209.848877,89.434120 209.889862,99.732765 
	C209.937073,111.598915 209.903641,123.465607 209.832397,135.331619 
	C209.825867,136.417313 209.290787,137.499817 209.001099,138.987335 
M189.506790,82.090096 
	C174.769638,87.518059 159.279388,88.801918 143.836075,89.875954 
	C134.216141,90.544998 124.492310,90.381866 114.850853,89.890579 
	C105.537415,89.416000 96.205719,88.437683 87.000633,86.947899 
	C78.271782,85.535172 69.696678,83.172462 61.000622,81.215508 
	C61.000622,86.278572 61.490932,91.830299 60.876766,97.257027 
	C60.105549,104.071404 63.428722,107.431229 69.030731,110.058868 
	C85.430084,117.751038 103.131119,118.900291 120.678833,119.760300 
	C132.643356,120.346664 144.780182,119.198044 156.726898,117.834534 
	C167.351349,116.621941 178.072113,114.729355 187.436920,109.000305 
	C190.319412,107.236900 194.225418,104.529457 194.614700,101.816849 
	C195.629471,94.745674 194.956207,87.432251 194.956207,79.563988 
	C192.872849,80.636322 191.590546,81.296341 189.506790,82.090096 
M120.515358,175.999771 
	C100.184799,175.735458 80.254936,173.233200 61.414436,164.839737 
	C61.198101,165.714798 61.050766,166.036057 61.049191,166.358032 
	C61.022293,171.849609 61.005875,177.341263 61.002312,182.832901 
	C60.996204,192.243591 61.630501,192.648605 70.566071,196.064636 
	C88.107155,202.770508 106.499939,204.461136 124.918121,204.766876 
	C137.665573,204.978470 150.586121,203.814346 163.171921,201.718948 
	C172.471085,200.170746 181.438629,196.353317 190.359451,193.025574 
	C192.327011,192.291611 194.649139,189.438690 194.788986,187.421524 
	C195.312439,179.870865 194.998413,172.262115 194.998413,164.502167 
	C193.971405,164.756134 193.296051,164.812027 192.720825,165.081589 
	C176.801987,172.541519 159.757004,174.903152 142.475815,175.931320 
	C135.510788,176.345703 128.500534,175.999741 120.515358,175.999771 
M193.128571,146.412979 
	C193.751556,145.142868 194.877670,143.886597 194.913055,142.600327 
	C195.095261,135.977371 194.997543,129.346725 194.997543,123.300804 
	C150.378586,138.222885 105.932426,138.102066 61.000622,123.652245 
	C61.000622,128.433411 61.000618,133.547760 61.000618,138.662125 
	C61.000622,146.268570 63.882885,150.098053 70.931137,152.991119 
	C87.240616,159.685593 104.529282,161.592560 121.756424,161.698181 
	C137.270966,161.793350 152.887253,159.934250 168.291382,157.754761 
	C177.147110,156.501785 186.047195,153.758301 193.128571,146.412979 
M169.938354,51.438622 
	C156.764130,49.958927 143.608017,47.521145 130.410553,47.271873 
	C117.489624,47.027832 104.392937,48.193378 91.623489,50.274643 
	C81.041733,51.999340 70.275520,54.487152 60.557228,61.691841 
	C63.792370,63.892212 66.436020,66.847633 69.621246,67.648178 
	C80.948532,70.495056 92.363846,73.540550 103.929298,74.736519 
	C115.492348,75.932228 127.292259,75.389648 138.957108,74.885818 
	C149.588089,74.426643 160.256393,73.498596 170.759613,71.837334 
	C179.129929,70.513428 187.477188,68.235008 194.818253,61.627964 
	C187.094879,56.397148 179.043716,53.755272 169.938354,51.438622 
z"/>
<path fill="transparent" opacity="1.000000" stroke="none" 
	d="
M189.907516,82.023224 
	C191.590546,81.296341 192.872849,80.636322 194.956207,79.563988 
	C194.956207,87.432251 195.629471,94.745674 194.614700,101.816849 
	C194.225418,104.529457 190.319412,107.236900 187.436920,109.000305 
	C178.072113,114.729355 167.351349,116.621941 156.726898,117.834534 
	C144.780182,119.198044 132.643356,120.346664 120.678833,119.760300 
	C103.131119,118.900291 85.430084,117.751038 69.030731,110.058868 
	C63.428722,107.431229 60.105549,104.071404 60.876766,97.257027 
	C61.490932,91.830299 61.000622,86.278572 61.000622,81.215508 
	C69.696678,83.172462 78.271782,85.535172 87.000633,86.947899 
	C96.205719,88.437683 105.537415,89.416000 114.850853,89.890579 
	C124.492310,90.381866 134.216141,90.544998 143.836075,89.875954 
	C159.279388,88.801918 174.769638,87.518059 189.907516,82.023224 
M85.162277,94.036522 
	C81.212547,92.391113 77.451981,91.941078 74.957390,96.341209 
	C73.024384,99.750778 73.511246,103.111687 76.440521,105.682755 
	C79.145485,108.056946 84.466194,107.509941 86.766716,104.637611 
	C89.611626,101.085564 89.230194,97.539940 85.162277,94.036522 
z"/>
<path fill="transparent" opacity="1.000000" stroke="none" 
	d="
M121.013107,175.999786 
	C128.500534,175.999741 135.510788,176.345703 142.475815,175.931320 
	C159.757004,174.903152 176.801987,172.541519 192.720825,165.081589 
	C193.296051,164.812027 193.971405,164.756134 194.998413,164.502167 
	C194.998413,172.262115 195.312439,179.870865 194.788986,187.421524 
	C194.649139,189.438690 192.327011,192.291611 190.359451,193.025574 
	C181.438629,196.353317 172.471085,200.170746 163.171921,201.718948 
	C150.586121,203.814346 137.665573,204.978470 124.918121,204.766876 
	C106.499939,204.461136 88.107155,202.770508 70.566071,196.064636 
	C61.630501,192.648605 60.996204,192.243591 61.002312,182.832901 
	C61.005875,177.341263 61.022293,171.849609 61.049191,166.358032 
	C61.050766,166.036057 61.198101,165.714798 61.414436,164.839737 
	C80.254936,173.233200 100.184799,175.735458 121.013107,175.999786 
M88.000420,182.530167 
	C87.285545,181.461792 86.672264,179.574234 85.837723,179.470734 
	C82.685448,179.079788 78.929123,178.208847 76.387512,179.485611 
	C72.474319,181.451340 73.333794,185.717972 75.095131,189.046951 
	C76.957664,192.567184 80.577950,192.705093 83.768234,191.578537 
	C87.416191,190.290375 89.586937,187.591492 88.000420,182.530167 
z"/>
<path fill="transparent" opacity="1.000000" stroke="none" 
	d="
M193.042068,146.800964 
	C186.047195,153.758301 177.147110,156.501785 168.291382,157.754761 
	C152.887253,159.934250 137.270966,161.793350 121.756424,161.698181 
	C104.529282,161.592560 87.240616,159.685593 70.931137,152.991119 
	C63.882885,150.098053 61.000622,146.268570 61.000618,138.662125 
	C61.000618,133.547760 61.000622,128.433411 61.000622,123.652245 
	C105.932426,138.102066 150.378586,138.222885 194.997543,123.300804 
	C194.997543,129.346725 195.095261,135.977371 194.913055,142.600327 
	C194.877670,143.886597 193.751556,145.142868 193.042068,146.800964 
M88.484604,141.970993 
	C86.908379,137.190094 83.119087,134.913177 78.752670,136.123245 
	C75.188583,137.110962 73.041786,141.349716 74.127831,145.254761 
	C75.118469,148.816727 79.358276,150.993530 83.260109,149.858719 
	C86.854591,148.813278 88.362320,146.064789 88.484604,141.970993 
z"/>
<path fill="transparent" opacity="1.000000" stroke="none" 
	d="
M170.293854,51.674065 
	C179.043716,53.755272 187.094879,56.397148 194.818253,61.627964 
	C187.477188,68.235008 179.129929,70.513428 170.759613,71.837334 
	C160.256393,73.498596 149.588089,74.426643 138.957108,74.885818 
	C127.292259,75.389648 115.492348,75.932228 103.929298,74.736519 
	C92.363846,73.540550 80.948532,70.495056 69.621246,67.648178 
	C66.436020,66.847633 63.792370,63.892212 60.557228,61.691841 
	C70.275520,54.487152 81.041733,51.999340 91.623489,50.274643 
	C104.392937,48.193378 117.489624,47.027832 130.410553,47.271873 
	C143.608017,47.521145 156.764130,49.958927 170.293854,51.674065 
z"/>
<path fill="#F38020" opacity="1.000000" stroke="none" 
	d="
M85.517532,94.213295 
	C89.230194,97.539940 89.611626,101.085564 86.766716,104.637611 
	C84.466194,107.509941 79.145485,108.056946 76.440521,105.682755 
	C73.511246,103.111687 73.024384,99.750778 74.957390,96.341209 
	C77.451981,91.941078 81.212547,92.391113 85.517532,94.213295 
z"/>
<path fill="#F38020" opacity="1.000000" stroke="none" 
	d="
M88.036575,182.916351 
	C89.586937,187.591492 87.416191,190.290375 83.768234,191.578537 
	C80.577950,192.705093 76.957664,192.567184 75.095131,189.046951 
	C73.333794,185.717972 72.474319,181.451340 76.387512,179.485611 
	C78.929123,178.208847 82.685448,179.079788 85.837723,179.470734 
	C86.672264,179.574234 87.285545,181.461792 88.036575,182.916351 
z"/>
<path fill="#F38020" opacity="1.000000" stroke="none" 
	d="
M88.702324,142.290588 
	C88.362320,146.064789 86.854591,148.813278 83.260109,149.858719 
	C79.358276,150.993530 75.118469,148.816727 74.127831,145.254761 
	C73.041786,141.349716 75.188583,137.110962 78.752670,136.123245 
	C83.119087,134.913177 86.908379,137.190094 88.702324,142.290588 
z"/>
</svg>