<svg version="1.1" id="Layer_1" xmlns="http://www.w3.org/2000/svg" xmlns:xlink="http://www.w3.org/1999/xlink" x="0px" y="0px"
	 width="100%" viewBox="0 0 1712 2048" enable-background="new 0 0 1712 2048" xml:space="preserve">
<path fill="transparent" opacity="1.000000" stroke="none" 
	d="
M868.000000,2049.000000 
	C578.666687,2049.000000 289.833344,2049.000000 1.000000,2049.000000 
	C1.000000,1366.333374 1.000000,683.666687 1.000000,1.000000 
	C571.666687,1.000000 1142.333374,1.000000 1713.000000,1.000000 
	C1713.000000,683.666687 1713.000000,1366.333374 1713.000000,2049.000000 
	C1431.500000,2049.000000 1150.000000,2049.000000 868.000000,2049.000000 
M850.784119,1984.958252 
	C857.735474,1981.332886 864.687500,1977.708984 871.638062,1974.082153 
	C892.348328,1963.275513 913.070557,1952.491699 933.764832,1941.654419 
	C962.738708,1926.481079 991.682129,1911.249878 1020.657471,1896.079346 
	C1034.999390,1888.570312 1049.395142,1881.164551 1063.744995,1873.670654 
	C1087.071899,1861.488403 1110.323730,1849.159668 1133.761353,1837.194946 
	C1137.179565,1835.449829 1138.072510,1833.581787 1138.067505,1830.040527 
	C1137.975708,1766.214478 1137.996826,1702.388184 1138.006714,1638.562012 
	C1138.007690,1632.065063 1138.091797,1625.568237 1139.014648,1619.028442 
	C1141.010620,1619.078735 1143.023071,1618.982422 1145.000000,1619.203491 
	C1156.000244,1620.432983 1166.991455,1621.742554 1177.986572,1623.019043 
	C1187.512817,1624.125000 1197.040649,1625.216064 1206.566284,1626.327026 
	C1219.864990,1627.877808 1233.159790,1629.462524 1246.460938,1630.991455 
	C1256.483154,1632.143555 1266.515869,1633.205200 1276.538574,1634.354126 
	C1289.836670,1635.878540 1303.126831,1637.473145 1316.425659,1638.990967 
	C1326.446899,1640.134644 1336.480591,1641.168335 1346.500977,1642.318115 
	C1359.802002,1643.843994 1373.092407,1645.464111 1386.393555,1646.988647 
	C1396.416016,1648.137329 1406.452026,1649.165894 1416.475220,1650.308350 
	C1429.941772,1651.843018 1443.402832,1653.425781 1456.864014,1655.006714 
	C1467.038452,1656.201416 1477.198242,1657.531006 1487.385254,1658.604126 
	C1495.932129,1659.504639 1504.508667,1660.121460 1513.800537,1660.955078 
	C1527.551392,1653.465210 1541.325562,1646.017578 1555.046143,1638.472534 
	C1566.345703,1632.258667 1577.605591,1625.971558 1588.840332,1619.641113 
	C1606.905151,1609.462402 1624.794067,1598.957886 1643.075684,1589.186890 
	C1647.773560,1586.676147 1649.102783,1584.066772 1649.101318,1579.041382 
	C1648.990356,1213.934692 1648.984375,848.828125 1649.109131,483.721497 
	C1649.111694,476.235565 1648.465210,471.316742 1640.306396,467.223328 
	C1618.740845,456.403625 1598.043091,443.854492 1576.994751,432.003113 
	C1563.623535,424.474365 1550.294312,416.868683 1536.846680,409.478760 
	C1529.023193,405.179535 1521.003174,401.238251 1512.161255,397.051758 
	C1500.968872,398.125671 1489.764038,399.085388 1478.587280,400.302917 
	C1465.283569,401.752167 1452.007812,403.457031 1438.712769,404.987640 
	C1426.061157,406.444153 1413.394531,407.770905 1400.744873,409.242767 
	C1387.614258,410.770599 1374.504517,412.478271 1361.370117,413.970490 
	C1348.225098,415.463867 1335.052002,416.708466 1321.907837,418.208832 
	C1308.777222,419.707672 1295.676270,421.468170 1282.545532,422.966614 
	C1269.400024,424.466766 1256.225952,425.716339 1243.078613,427.201630 
	C1229.613281,428.722870 1216.164917,430.395081 1202.709717,432.004517 
	C1192.211304,433.260284 1181.726562,434.644562 1171.212036,435.746002 
	C1159.865723,436.934570 1148.492065,437.860657 1137.022949,437.981079 
	C1137.015381,388.013672 1137.006714,338.046234 1137.000488,288.078827 
	C1136.997681,265.426849 1137.066040,242.774323 1136.876953,220.123901 
	C1136.861572,218.274582 1135.590454,215.540344 1134.088135,214.732407 
	C1109.337646,201.422134 1084.454224,188.358673 1059.604614,175.232666 
	C1042.417236,166.154007 1025.249146,157.038651 1008.048401,147.985443 
	C976.958496,131.622040 945.834229,115.323936 914.756836,98.936844 
	C897.848450,90.021042 881.041870,80.911736 864.113342,72.034767 
	C859.234558,69.476433 854.091309,67.422302 848.338562,65.122536 
	C836.715454,71.152122 825.058777,77.118095 813.475708,83.223686 
	C783.387512,99.083542 753.337463,115.015587 723.261169,130.897980 
	C699.642273,143.370407 676.019287,155.835220 652.375793,168.260849 
	C624.321594,183.004410 596.305664,197.823517 568.119446,212.310654 
	C562.918945,214.983582 560.828674,217.951111 560.842529,224.062256 
	C561.053040,317.040924 560.967834,410.020264 560.157471,502.996796 
	C547.162537,499.357117 534.171204,495.704620 521.171875,492.080688 
	C499.532837,486.048279 477.890564,480.027588 456.246307,474.014008 
	C429.914612,466.698151 403.577576,459.401489 377.246338,452.084015 
	C355.608704,446.070862 333.977112,440.035767 312.341064,434.016785 
	C283.660126,426.038025 254.989426,418.022095 226.291138,410.106232 
	C208.720703,405.259857 191.111938,400.551697 173.494583,395.878723 
	C172.759247,395.683685 171.761581,396.477600 170.270020,397.158356 
	C163.941559,400.064636 157.636002,403.022064 151.280624,405.868225 
	C125.678780,417.333679 100.203568,429.101776 74.359688,439.994354 
	C67.020653,443.087585 64.806679,446.796173 64.811134,454.661224 
	C65.027161,835.951599 65.047539,1217.242065 64.756332,1598.532349 
	C64.748123,1609.282349 66.570808,1615.658813 77.672897,1619.675781 
	C94.638443,1625.814453 110.893562,1633.931396 127.398270,1641.324463 
	C141.940323,1647.838135 156.411041,1654.511108 171.346802,1661.747437 
	C171.837158,1661.826050 172.370071,1662.071899 172.811874,1661.959595 
	C204.956680,1653.781860 237.082581,1645.529541 269.235199,1637.382812 
	C308.059204,1627.545654 346.896790,1617.761841 385.744110,1608.017212 
	C429.150940,1597.129150 472.574951,1586.309326 515.992432,1575.463745 
	C531.310669,1571.637085 546.631714,1567.821777 561.982483,1564.937988 
	C561.988342,1648.414917 561.994202,1731.891724 562.000427,1815.368652 
	C562.000793,1820.533813 561.690979,1825.727905 562.161865,1830.849976 
	C562.349609,1832.892456 563.781006,1835.636353 565.474976,1836.591187 
	C576.161743,1842.616577 587.060547,1848.268555 597.928589,1853.968994 
	C618.494873,1864.756592 639.086426,1875.495728 659.669312,1886.251709 
	C698.197815,1906.385376 736.733765,1926.504761 775.253967,1946.654297 
	C793.918579,1956.417480 812.520081,1966.302124 831.223328,1975.990601 
	C837.380859,1979.180298 843.767761,1981.927002 850.784119,1984.958252 
z"/>
<path fill="#7B1D13" opacity="1.000000" stroke="none" 
	d="
M1513.072266,1660.863892 
	C1504.508667,1660.121460 1495.932129,1659.504639 1487.385254,1658.604126 
	C1477.198242,1657.531006 1467.038452,1656.201416 1456.864014,1655.006714 
	C1443.402832,1653.425781 1429.941772,1651.843018 1416.475220,1650.308350 
	C1406.452026,1649.165894 1396.416016,1648.137329 1386.393555,1646.988647 
	C1373.092407,1645.464111 1359.802002,1643.843994 1346.500977,1642.318115 
	C1336.480591,1641.168335 1326.446899,1640.134644 1316.425659,1638.990967 
	C1303.126831,1637.473145 1289.836670,1635.878540 1276.538574,1634.354126 
	C1266.515869,1633.205200 1256.483154,1632.143555 1246.460938,1630.991455 
	C1233.159790,1629.462524 1219.864990,1627.877808 1206.566284,1626.327026 
	C1197.040649,1625.216064 1187.512817,1624.125000 1177.986572,1623.019043 
	C1166.991455,1621.742554 1156.000244,1620.432983 1145.000000,1619.203491 
	C1143.023071,1618.982422 1141.010620,1619.078735 1138.481689,1618.585205 
	C1137.848877,1615.317871 1137.662964,1612.493652 1137.662231,1609.669434 
	C1137.645264,1550.571899 1137.649902,1491.474365 1137.646484,1432.376831 
	C1137.646362,1430.379517 1138.063477,1428.222168 1137.438721,1426.435669 
	C1136.942261,1425.015625 1135.149170,1424.049072 1133.580933,1422.752197 
	C1131.288086,1422.161865 1129.361816,1421.615601 1127.401611,1421.251587 
	C1069.931763,1410.581055 1012.460999,1399.915405 954.984985,1389.277954 
	C919.943481,1382.792725 884.893066,1376.355469 849.874146,1369.435181 
	C849.919434,1335.965820 849.937256,1302.957886 850.397644,1269.990479 
	C863.405701,1268.679077 875.974182,1267.354858 888.536011,1265.969849 
	C918.825012,1262.630737 949.119141,1259.335938 979.395508,1255.885254 
	C1004.976196,1252.969482 1030.531860,1249.834473 1056.104126,1246.843506 
	C1081.545898,1243.867676 1106.987549,1240.884888 1132.448364,1238.079102 
	C1136.162720,1237.669922 1137.966675,1236.368408 1137.652344,1232.529785 
	C1137.517090,1230.875244 1137.648315,1229.199341 1137.648315,1227.533203 
	C1137.649170,1094.235718 1137.649292,960.938293 1137.648438,827.640869 
	C1137.648438,825.974731 1137.531494,824.301270 1137.648560,822.643921 
	C1137.881348,819.348694 1136.488159,817.835876 1133.135742,817.532166 
	C1124.698730,816.767944 1116.285645,815.742920 1107.858398,814.866760 
	C1085.374756,812.528931 1062.876953,810.320923 1040.406372,807.864319 
	C1010.800171,804.627686 981.217041,801.180664 951.619019,797.869080 
	C937.402893,796.278564 923.177185,794.772278 908.952209,793.261475 
	C889.288330,791.173096 869.620972,789.116333 849.953064,786.574585 
	C849.948120,771.621033 849.975342,757.138977 849.934937,742.657043 
	C849.880554,723.184998 849.774048,703.713074 850.139771,684.195435 
	C868.686829,681.264099 886.789795,678.414185 904.880127,675.486328 
	C976.586182,663.880859 1048.291992,652.274292 1119.984619,640.586060 
	C1125.702759,639.653748 1131.318726,638.094849 1136.980469,636.369263 
	C1136.985962,602.992676 1136.978638,570.073853 1137.003906,537.155090 
	C1137.028931,504.403809 1137.086792,471.652527 1137.130127,438.901245 
	C1148.492065,437.860657 1159.865723,436.934570 1171.212036,435.746002 
	C1181.726562,434.644562 1192.211304,433.260284 1202.709717,432.004517 
	C1216.164917,430.395081 1229.613281,428.722870 1243.078613,427.201630 
	C1256.225952,425.716339 1269.400024,424.466766 1282.545532,422.966614 
	C1295.676270,421.468170 1308.777222,419.707672 1321.907837,418.208832 
	C1335.052002,416.708466 1348.225098,415.463867 1361.370117,413.970490 
	C1374.504517,412.478271 1387.614258,410.770599 1400.744873,409.242767 
	C1413.394531,407.770905 1426.061157,406.444153 1438.712769,404.987640 
	C1452.007812,403.457031 1465.283569,401.752167 1478.587280,400.302917 
	C1489.764038,399.085388 1500.968872,398.125671 1512.594482,397.552795 
	C1513.018555,399.553558 1513.001221,401.053284 1513.001221,402.552979 
	C1513.000000,820.157288 1513.000000,1237.761597 1513.003174,1655.365967 
	C1513.003174,1657.198608 1513.048218,1659.031250 1513.072266,1660.863892 
z"/>
<path fill="#E25444" opacity="1.000000" stroke="none" 
	d="
M849.689880,684.241089 
	C849.774048,703.713074 849.880554,723.184998 849.934937,742.657043 
	C849.975342,757.138977 849.948120,771.621033 849.975952,786.552246 
	C850.000977,787.001465 850.046814,786.956909 849.608276,786.963867 
	C835.105103,788.472412 821.037964,789.950867 806.976318,791.480225 
	C768.886047,795.622803 730.796143,799.769104 692.709778,803.947205 
	C650.350281,808.594116 607.991577,813.248596 565.653625,818.084656 
	C564.375427,818.230591 562.899231,820.264343 562.303772,821.736755 
	C561.722778,823.173645 562.142334,825.019714 562.142334,826.686157 
	C562.140564,960.845886 562.140625,1095.005615 562.141357,1229.165405 
	C562.141357,1230.498657 562.219910,1231.835815 562.143799,1233.164429 
	C561.958435,1236.401855 563.096497,1237.856201 566.674683,1238.088989 
	C574.295227,1238.584595 581.881653,1239.627808 589.476257,1240.496826 
	C613.969971,1243.299316 638.459839,1246.135376 662.953430,1248.938843 
	C705.634094,1253.824341 748.313232,1258.723022 790.999451,1263.559814 
	C810.674255,1265.789062 830.364136,1267.885376 850.024109,1270.019043 
	C850.001038,1269.996216 849.955078,1269.949951 849.955078,1269.949951 
	C849.937256,1302.957886 849.919434,1335.965820 849.485229,1369.507812 
	C847.933533,1370.301392 846.806274,1370.605469 845.661560,1370.813843 
	C812.140076,1376.917969 778.601379,1382.929077 745.097595,1389.128418 
	C698.516418,1397.747559 651.955139,1406.474731 605.398682,1415.226685 
	C592.690063,1417.615601 580.029541,1420.260010 567.036255,1422.660156 
	C562.804993,1422.012329 562.059021,1424.041748 562.080566,1427.540894 
	C562.207947,1448.201782 562.165161,1468.863892 562.134216,1489.525513 
	C562.097046,1514.350708 562.014404,1539.176025 561.951477,1564.001221 
	C546.631714,1567.821777 531.310669,1571.637085 515.992432,1575.463745 
	C472.574951,1586.309326 429.150940,1597.129150 385.744110,1608.017212 
	C346.896790,1617.761841 308.059204,1627.545654 269.235199,1637.382812 
	C237.082581,1645.529541 204.956680,1653.781860 172.811874,1661.959595 
	C172.370071,1662.071899 171.837158,1661.826050 171.277283,1661.032471 
	C171.334000,1658.329956 171.570801,1656.342163 171.570877,1654.354492 
	C171.586716,1237.477661 171.587021,820.600830 171.556732,403.723969 
	C171.556564,401.419586 171.119293,399.115173 170.886124,396.810791 
	C171.761581,396.477600 172.759247,395.683685 173.494583,395.878723 
	C191.111938,400.551697 208.720703,405.259857 226.291138,410.106232 
	C254.989426,418.022095 283.660126,426.038025 312.341064,434.016785 
	C333.977112,440.035767 355.608704,446.070862 377.246338,452.084015 
	C403.577576,459.401489 429.914612,466.698151 456.246307,474.014008 
	C477.890564,480.027588 499.532837,486.048279 521.171875,492.080688 
	C534.171204,495.704620 547.162537,499.357117 560.570190,503.466614 
	C560.989014,546.319763 560.964172,588.703125 561.088501,631.086121 
	C561.094971,633.295654 562.371460,635.501465 563.469666,637.801147 
	C597.660095,643.332214 631.443970,648.731262 665.213135,654.221008 
	C702.940735,660.354309 740.651428,666.592224 778.376465,672.741760 
	C802.140991,676.615540 825.918274,680.410706 849.689880,684.241089 
z"/>
<path fill="#E25444" opacity="1.000000" stroke="none" 
	d="
M1513.436401,1660.909424 
	C1513.048218,1659.031250 1513.003174,1657.198608 1513.003174,1655.365967 
	C1513.000000,1237.761597 1513.000000,820.157288 1513.001221,402.552979 
	C1513.001221,401.053284 1513.018555,399.553558 1513.049683,397.594879 
	C1521.003174,401.238251 1529.023193,405.179535 1536.846680,409.478760 
	C1550.294312,416.868683 1563.623535,424.474365 1576.994751,432.003113 
	C1598.043091,443.854492 1618.740845,456.403625 1640.306396,467.223328 
	C1648.465210,471.316742 1649.111694,476.235565 1649.109131,483.721497 
	C1648.984375,848.828125 1648.990356,1213.934692 1649.101318,1579.041382 
	C1649.102783,1584.066772 1647.773560,1586.676147 1643.075684,1589.186890 
	C1624.794067,1598.957886 1606.905151,1609.462402 1588.840332,1619.641113 
	C1577.605591,1625.971558 1566.345703,1632.258667 1555.046143,1638.472534 
	C1541.325562,1646.017578 1527.551392,1653.465210 1513.436401,1660.909424 
z"/>
<path fill="#E25444" opacity="1.000000" stroke="none" 
	d="
M1137.076538,438.441162 
	C1137.086792,471.652527 1137.028931,504.403809 1137.003906,537.155090 
	C1136.978638,570.073853 1136.985962,602.992676 1136.605347,636.341309 
	C1042.062134,610.590454 947.891357,584.413879 853.731689,558.197327 
	C852.033203,557.724487 850.467712,556.773804 848.889465,555.576782 
	C848.959167,552.274536 848.997375,549.441711 848.997437,546.608826 
	C849.000366,399.283752 848.998291,251.958710 849.002991,104.633644 
	C849.003418,91.468109 849.046143,78.302567 849.069336,65.137024 
	C854.091309,67.422302 859.234558,69.476433 864.113342,72.034767 
	C881.041870,80.911736 897.848450,90.021042 914.756836,98.936844 
	C945.834229,115.323936 976.958496,131.622040 1008.048401,147.985443 
	C1025.249146,157.038651 1042.417236,166.154007 1059.604614,175.232666 
	C1084.454224,188.358673 1109.337646,201.422134 1134.088135,214.732407 
	C1135.590454,215.540344 1136.861572,218.274582 1136.876953,220.123901 
	C1137.066040,242.774323 1136.997681,265.426849 1137.000488,288.078827 
	C1137.006714,338.046234 1137.015381,388.013672 1137.076538,438.441162 
z"/>
<path fill="#7B1D13" opacity="1.000000" stroke="none" 
	d="
M848.703918,65.129784 
	C849.046143,78.302567 849.003418,91.468109 849.002991,104.633644 
	C848.998291,251.958710 849.000366,399.283752 848.997437,546.608826 
	C848.997375,549.441711 848.959167,552.274536 848.531860,555.669556 
	C754.997131,582.431946 661.867188,608.624817 568.755249,634.881714 
	C566.749451,635.447388 564.951538,636.750122 563.056641,637.709045 
	C562.371460,635.501465 561.094971,633.295654 561.088501,631.086121 
	C560.964172,588.703125 560.989014,546.319763 560.967346,503.467957 
	C560.967834,410.020264 561.053040,317.040924 560.842529,224.062256 
	C560.828674,217.951111 562.918945,214.983582 568.119446,212.310654 
	C596.305664,197.823517 624.321594,183.004410 652.375793,168.260849 
	C676.019287,155.835220 699.642273,143.370407 723.261169,130.897980 
	C753.337463,115.015587 783.387512,99.083542 813.475708,83.223686 
	C825.058777,77.118095 836.715454,71.152122 848.703918,65.129784 
z"/>
<path fill="#7B1D13" opacity="1.000000" stroke="none" 
	d="
M561.966980,1564.469604 
	C562.014404,1539.176025 562.097046,1514.350708 562.134216,1489.525513 
	C562.165161,1468.863892 562.207947,1448.201782 562.080566,1427.540894 
	C562.059021,1424.041748 562.804993,1422.012329 567.418152,1422.819946 
	C570.815125,1423.935181 573.489197,1424.884033 576.228455,1425.573975 
	C627.933167,1438.596802 679.636169,1451.626709 731.359436,1464.575562 
	C770.959351,1474.489380 810.586914,1484.292969 850.146484,1494.602417 
	C850.049927,1497.057373 849.973328,1499.055420 849.973145,1501.053589 
	C849.957581,1660.329468 849.947571,1819.605469 849.942688,1978.881348 
	C849.942627,1980.879639 850.012512,1982.877930 850.049805,1984.876221 
	C843.767761,1981.927002 837.380859,1979.180298 831.223328,1975.990601 
	C812.520081,1966.302124 793.918579,1956.417480 775.253967,1946.654297 
	C736.733765,1926.504761 698.197815,1906.385376 659.669312,1886.251709 
	C639.086426,1875.495728 618.494873,1864.756592 597.928589,1853.968994 
	C587.060547,1848.268555 576.161743,1842.616577 565.474976,1836.591187 
	C563.781006,1835.636353 562.349609,1832.892456 562.161865,1830.849976 
	C561.690979,1825.727905 562.000793,1820.533813 562.000427,1815.368652 
	C561.994202,1731.891724 561.988342,1648.414917 561.966980,1564.469604 
z"/>
<path fill="#58150D" opacity="1.000000" stroke="none" 
	d="
M170.578064,396.984558 
	C171.119293,399.115173 171.556564,401.419586 171.556732,403.723969 
	C171.587021,820.600830 171.586716,1237.477661 171.570877,1654.354492 
	C171.570801,1656.342163 171.334000,1658.329956 171.060516,1660.715576 
	C156.411041,1654.511108 141.940323,1647.838135 127.398270,1641.324463 
	C110.893562,1633.931396 94.638443,1625.814453 77.672897,1619.675781 
	C66.570808,1615.658813 64.748123,1609.282349 64.756332,1598.532349 
	C65.047539,1217.242065 65.027161,835.951599 64.811134,454.661224 
	C64.806679,446.796173 67.020653,443.087585 74.359688,439.994354 
	C100.203568,429.101776 125.678780,417.333679 151.280624,405.868225 
	C157.636002,403.022064 163.941559,400.064636 170.578064,396.984558 
z"/>
<path fill="#E25444" opacity="1.000000" stroke="none" 
	d="
M850.416992,1984.917236 
	C850.012512,1982.877930 849.942627,1980.879639 849.942688,1978.881348 
	C849.947571,1819.605469 849.957581,1660.329468 849.973145,1501.053589 
	C849.973328,1499.055420 850.049927,1497.057373 850.530090,1494.553467 
	C923.544556,1475.861816 996.124390,1457.694580 1068.692139,1439.479004 
	C1090.456177,1434.015747 1112.186035,1428.417480 1133.931641,1422.881104 
	C1135.149170,1424.049072 1136.942261,1425.015625 1137.438721,1426.435669 
	C1138.063477,1428.222168 1137.646362,1430.379517 1137.646484,1432.376831 
	C1137.649902,1491.474365 1137.645264,1550.571899 1137.662231,1609.669434 
	C1137.662964,1612.493652 1137.848877,1615.317871 1138.042969,1618.606689 
	C1138.091797,1625.568237 1138.007690,1632.065063 1138.006714,1638.562012 
	C1137.996826,1702.388184 1137.975708,1766.214478 1138.067505,1830.040527 
	C1138.072510,1833.581787 1137.179565,1835.449829 1133.761353,1837.194946 
	C1110.323730,1849.159668 1087.071899,1861.488403 1063.744995,1873.670654 
	C1049.395142,1881.164551 1034.999390,1888.570312 1020.657471,1896.079346 
	C991.682129,1911.249878 962.738708,1926.481079 933.764832,1941.654419 
	C913.070557,1952.491699 892.348328,1963.275513 871.638062,1974.082153 
	C864.687500,1977.708984 857.735474,1981.332886 850.416992,1984.917236 
z"/>
<path fill="#E25444" opacity="1.000000" stroke="none" 
	d="
M849.978027,787.023804 
	C869.620972,789.116333 889.288330,791.173096 908.952209,793.261475 
	C923.177185,794.772278 937.402893,796.278564 951.619019,797.869080 
	C981.217041,801.180664 1010.800171,804.627686 1040.406372,807.864319 
	C1062.876953,810.320923 1085.374756,812.528931 1107.858398,814.866760 
	C1116.285645,815.742920 1124.698730,816.767944 1133.135742,817.532166 
	C1136.488159,817.835876 1137.881348,819.348694 1137.648560,822.643921 
	C1137.531494,824.301270 1137.648438,825.974731 1137.648438,827.640869 
	C1137.649292,960.938293 1137.649170,1094.235718 1137.648315,1227.533203 
	C1137.648315,1229.199341 1137.517090,1230.875244 1137.652344,1232.529785 
	C1137.966675,1236.368408 1136.162720,1237.669922 1132.448364,1238.079102 
	C1106.987549,1240.884888 1081.545898,1243.867676 1056.104126,1246.843506 
	C1030.531860,1249.834473 1004.976196,1252.969482 979.395508,1255.885254 
	C949.119141,1259.335938 918.825012,1262.630737 888.536011,1265.969849 
	C875.974182,1267.354858 863.405701,1268.679077 850.397644,1269.990479 
	C849.955078,1269.949951 850.001038,1269.996216 849.976074,1269.549805 
	C849.929138,1267.604980 849.888062,1266.106323 849.888062,1264.607788 
	C849.885193,1107.220947 849.884766,949.834167 849.891968,792.447327 
	C849.892090,790.617188 849.992981,788.787048 850.046753,786.956909 
	C850.046814,786.956909 850.000977,787.001465 849.978027,787.023804 
z"/>
<path fill="#58150D" opacity="1.000000" stroke="none" 
	d="
M563.469666,637.801147 
	C564.951538,636.750122 566.749451,635.447388 568.755249,634.881714 
	C661.867188,608.624817 754.997131,582.431946 848.482666,556.138916 
	C850.467712,556.773804 852.033203,557.724487 853.731689,558.197327 
	C947.891357,584.413879 1042.062134,610.590454 1136.606934,636.799133 
	C1131.318726,638.094849 1125.702759,639.653748 1119.984619,640.586060 
	C1048.291992,652.274292 976.586182,663.880859 904.880127,675.486328 
	C886.789795,678.414185 868.686829,681.264099 850.139771,684.195435 
	C825.918274,680.410706 802.140991,676.615540 778.376465,672.741760 
	C740.651428,666.592224 702.940735,660.354309 665.213135,654.221008 
	C631.443970,648.731262 597.660095,643.332214 563.469666,637.801147 
z"/>
<path fill="#58150D" opacity="1.000000" stroke="none" 
	d="
M1133.580933,1422.752197 
	C1112.186035,1428.417480 1090.456177,1434.015747 1068.692139,1439.479004 
	C996.124390,1457.694580 923.544556,1475.861816 850.585693,1494.096680 
	C810.586914,1484.292969 770.959351,1474.489380 731.359436,1464.575562 
	C679.636169,1451.626709 627.933167,1438.596802 576.228455,1425.573975 
	C573.489197,1424.884033 570.815125,1423.935181 567.728882,1422.947021 
	C580.029541,1420.260010 592.690063,1417.615601 605.398682,1415.226685 
	C651.955139,1406.474731 698.516418,1397.747559 745.097595,1389.128418 
	C778.601379,1382.929077 812.140076,1376.917969 845.661560,1370.813843 
	C846.806274,1370.605469 847.933533,1370.301392 849.457764,1369.969238 
	C884.893066,1376.355469 919.943481,1382.792725 954.984985,1389.277954 
	C1012.460999,1399.915405 1069.931763,1410.581055 1127.401611,1421.251587 
	C1129.361816,1421.615601 1131.288086,1422.161865 1133.580933,1422.752197 
z"/>
<path fill="#7B1D13" opacity="1.000000" stroke="none" 
	d="
M849.608276,786.963867 
	C849.992981,788.787048 849.892090,790.617188 849.891968,792.447327 
	C849.884766,949.834167 849.885193,1107.220947 849.888062,1264.607788 
	C849.888062,1266.106323 849.929138,1267.604980 849.999146,1269.572754 
	C830.364136,1267.885376 810.674255,1265.789062 790.999451,1263.559814 
	C748.313232,1258.723022 705.634094,1253.824341 662.953430,1248.938843 
	C638.459839,1246.135376 613.969971,1243.299316 589.476257,1240.496826 
	C581.881653,1239.627808 574.295227,1238.584595 566.674683,1238.088989 
	C563.096497,1237.856201 561.958435,1236.401855 562.143799,1233.164429 
	C562.219910,1231.835815 562.141357,1230.498657 562.141357,1229.165405 
	C562.140625,1095.005615 562.140564,960.845886 562.142334,826.686157 
	C562.142334,825.019714 561.722778,823.173645 562.303772,821.736755 
	C562.899231,820.264343 564.375427,818.230591 565.653625,818.084656 
	C607.991577,813.248596 650.350281,808.594116 692.709778,803.947205 
	C730.796143,799.769104 768.886047,795.622803 806.976318,791.480225 
	C821.037964,789.950867 835.105103,788.472412 849.608276,786.963867 
z"/>
</svg>